<?xml version="1.0" standalone="no"?><!DOCTYPE svg PUBLIC "-//W3C//DTD SVG 1.1//EN" "http://www.w3.org/Graphics/SVG/1.1/DTD/svg11.dtd"><svg t="1661936746312" class="icon" viewBox="0 0 1024 1024" version="1.1" xmlns="http://www.w3.org/2000/svg" p-id="20758" xmlns:xlink="http://www.w3.org/1999/xlink" width="200" height="200"><path d="M762.48 262.16l-0.64-0.64a128 128 0 0 0-181 0l-291.32 291.32a32 32 0 0 0-6.08 8.48l-8 16.56a32 32 0 0 0-2.16 5.72l-48 176a32 32 0 0 0 39.28 39.28l176-48a32 32 0 0 0 5.72-2.16l16.56-8a32 32 0 0 0 8.48-6.08l291.28-291.28a128 128 0 0 0 0-181.04zM460 654.92L369.08 564 564 369.08 654.92 460zM330.64 616L408 693.36l-106.4 29.04z m386.56-218l-17.2 16.92L609.08 324l17.04-17.04a64 64 0 0 1 90.52 0l0.64 0.64a64 64 0 0 1 0 90.52z" fill="" p-id="20759"></path></svg>