<?xml version="1.0" standalone="no"?><!DOCTYPE svg PUBLIC "-//W3C//DTD SVG 1.1//EN" "http://www.w3.org/Graphics/SVG/1.1/DTD/svg11.dtd"><svg t="1661936827642" class="icon" viewBox="0 0 1024 1024" version="1.1" xmlns="http://www.w3.org/2000/svg" p-id="21029" xmlns:xlink="http://www.w3.org/1999/xlink" width="200" height="200"><path d="M803.8 928a59.4 59.4 0 0 1-39.68-15.32l-68-60.52a71.72 71.72 0 0 0-47.8-18.24H264a104.24 104.24 0 0 1-104-104.24V296.24A104.24 104.24 0 0 1 264 192h496a104.24 104.24 0 0 1 104 104.24V868a59.4 59.4 0 0 1-35.52 54.84 60.36 60.36 0 0 1-24.68 5.16zM264 256a40 40 0 0 0-40 40.24v433.48a40 40 0 0 0 40 40.24h384.48a135.68 135.68 0 0 1 90.4 34.48L800 859V296.24A40 40 0 0 0 760 256z" fill="#ff8d57" p-id="21030"></path><path d="M552 360m-40 0a40 40 0 1 0 80 0 40 40 0 1 0-80 0Z" fill="#ff8d57" p-id="21031"></path><path d="M536 659.08a330.32 330.32 0 0 0 44.64-9.76 14.36 14.36 0 0 1 5.2-0.64c3.72 0 5.96 1.32 5.96 4 0 11.72-105.68 51.4-126.52 51.4-5.2 0-33.48-6.52-33.48-48.8 0-3.24 0.76-6.52 0.76-9.76 1.48-17.56 24-84 43.16-148.36l8.92-31.24c5.2-19.52 65.48-33.84 76-33.84a5.28 5.28 0 0 1 5.96 5.2c0 0.64-0.76 0.64-1.48 1.32-29.76 22.76-67.72 183.52-67.72 197.8 0 17.56 12.64 22.76 32.76 22.76z" fill="#ff8d57" p-id="21032"></path></svg>