<?xml version="1.0" standalone="no"?><!DOCTYPE svg PUBLIC "-//W3C//DTD SVG 1.1//EN" "http://www.w3.org/Graphics/SVG/1.1/DTD/svg11.dtd"><svg t="1661938825632" class="icon" viewBox="0 0 1024 1024" version="1.1" xmlns="http://www.w3.org/2000/svg" p-id="3605" xmlns:xlink="http://www.w3.org/1999/xlink" width="200" height="200"><path d="M708.181333 588.757333l-273.066666-273.066666 85.333333-85.333334a193.578667 193.578667 0 0 1 254.72-16l86.485333-86.101333 34.133334 34.133333-86.4 86.4a193.578667 193.578667 0 0 1-16 254.72zM248.746667 809.386667a193.578667 193.578667 0 0 0 254.72-16l85.333333-85.333334-51.2-51.2 85.333333-85.333333-34.133333-34.133333-85.333333 85.333333-102.4-102.4 85.333333-85.333333-34.133333-34.133334-85.333334 85.333334-51.2-51.2-85.333333 85.333333a193.578667 193.578667 0 0 0-16 254.72l-86.144 86.613333 34.133333 34.133334z" p-id="3606"></path></svg>